<svg width="27" height="22" viewBox="0 0 27 22" fill="none" xmlns="http://www.w3.org/2000/svg">
<path d="M3.68182 0C5.71523 8.85175e-08 7.36364 1.64162 7.36364 3.66667L7.36364 18.3333C7.36364 20.3584 5.71523 22 3.68182 22C1.64841 22 -8.88833e-08 20.3584 0 18.3333L6.43749e-07 3.66667C7.32633e-07 1.64162 1.64841 -8.85175e-08 3.68182 0Z" fill="#FF1A84"/>
<path d="M13.5 2.44444C15.5334 2.44444 17.1818 4.08607 17.1818 6.11111L17.1818 15.8889C17.1818 17.9139 15.5334 19.5556 13.5 19.5556C11.4666 19.5556 9.81818 17.9139 9.81818 15.8889V6.11111C9.81818 4.08607 11.4666 2.44444 13.5 2.44444Z" fill="#CD16C2"/>
<path d="M23.3182 0C25.3516 8.85175e-08 27 1.64162 27 3.66667V18.3333C27 20.3584 25.3516 22 23.3182 22C21.2848 22 19.6364 20.3584 19.6364 18.3333V3.66667C19.6364 1.64162 21.2848 -8.85175e-08 23.3182 0Z" fill="#9C12FC"/>
</svg>
